<svg xmlns="http://www.w3.org/2000/svg" xmlns:xlink="http://www.w3.org/1999/xlink" contentStyleType="text/css" data-diagram-type="DESCRIPTION" height="381px" preserveAspectRatio="none" style="width:1466px;height:381px;" version="1.1" viewBox="0 0 1466 381" width="1466px" zoomAndPan="magnify"><?plantuml 1.2026.6?><defs/><g><!--entity start--><g class="entity" data-qualified-name="start" data-source-line="16" id="ent0001"><ellipse cx="41.0293" cy="178.5" fill="#176B62" rx="8" ry="8" style="stroke:#181818;stroke-width:0.5;"/><text fill="#17232D" font-family="Arial" font-size="20" lengthAdjust="spacing" textLength="70.0586" x="6" y="214.2598">Change</text></g><!--entity proposed--><g class="entity" data-qualified-name="proposed" data-source-line="17" id="ent0002"><rect fill="#F7F4ED" height="65.9961" rx="9" ry="9" style="stroke:#49677C;stroke-width:0.5;" width="118.9648" x="144.0293" y="145.5"/><text fill="#17232D" font-family="Arial" font-size="20" lengthAdjust="spacing" textLength="85.6152" x="154.0293" y="174.2598">Proposed</text><text fill="#17232D" font-family="Arial" font-size="20" lengthAdjust="spacing" textLength="98.9648" x="154.0293" y="197.2578">Knowledge</text></g><!--entity interpret--><g class="entity" data-qualified-name="interpret" data-source-line="18" id="ent0003"><rect fill="#F7F4ED" height="65.9961" rx="9" ry="9" style="stroke:#49677C;stroke-width:0.5;" width="133.4082" x="322.9893" y="145.5"/><text fill="#17232D" font-family="Arial" font-size="20" lengthAdjust="spacing" textLength="113.4082" x="332.9893" y="174.2598">Interpret and</text><text fill="#17232D" font-family="Arial" font-size="20" lengthAdjust="spacing" textLength="87.8223" x="332.9893" y="197.2578">Reconcile</text></g><!--entity assurance--><g class="entity" data-qualified-name="assurance" data-source-line="19" id="ent0004"><rect fill="#DCEBE7" height="65.9961" rx="9" ry="9" style="stroke:#49677C;stroke-width:0.5;" width="131.1523" x="516.3993" y="145.5"/><text fill="#17232D" font-family="Arial" font-size="20" lengthAdjust="spacing" textLength="111.1523" x="526.3993" y="174.2598">Architectural</text><text fill="#17232D" font-family="Arial" font-size="20" lengthAdjust="spacing" textLength="94.4922" x="526.3993" y="197.2578">Assurance</text></g><!--entity findings--><g class="entity" data-qualified-name="findings" data-source-line="20" id="ent0005"><rect fill="#F3E3DE" height="42.998" rx="9" ry="9" style="stroke:#49677C;stroke-width:0.5;" width="95.5957" x="707.5593" y="157"/><text fill="#17232D" font-family="Arial" font-size="20" lengthAdjust="spacing" textLength="75.5957" x="717.5593" y="185.7598">Findings</text></g><!--entity human_review--><g class="entity" data-qualified-name="human_review" data-source-line="21" id="ent0006"><rect fill="#F7F4ED" height="65.9961" rx="9" ry="9" style="stroke:#49677C;stroke-width:0.5;" width="118.9551" x="863.1493" y="145.5"/><text fill="#17232D" font-family="Arial" font-size="20" lengthAdjust="spacing" textLength="64.4727" x="873.1493" y="174.2598">Human</text><text fill="#17232D" font-family="Arial" font-size="20" lengthAdjust="spacing" textLength="98.9551" x="873.1493" y="197.2578">Judgement</text></g><!--entity disposition--><g class="entity" data-qualified-name="disposition" data-source-line="22" id="ent0007"><rect fill="#E8EDF2" height="42.998" rx="9" ry="9" style="stroke:#49677C;stroke-width:0.5;" width="117.8223" x="1042.1093" y="157"/><text fill="#17232D" font-family="Arial" font-size="20" lengthAdjust="spacing" textLength="97.8223" x="1052.1093" y="185.7598">Disposition</text></g><!--entity merge--><g class="entity" data-qualified-name="merge" data-source-line="24" id="ent0008"><rect fill="#DCEBE7" height="42.998" rx="9" ry="9" style="stroke:#49677C;stroke-width:0.5;" width="76.6895" x="1222.1493" y="7"/><text fill="#17232D" font-family="Arial" font-size="20" lengthAdjust="spacing" textLength="56.6895" x="1232.1493" y="35.7598">Merge</text></g><!--entity revise--><g class="entity" data-qualified-name="revise" data-source-line="25" id="ent0009"><rect fill="#F7F4ED" height="42.998" rx="9" ry="9" style="stroke:#49677C;stroke-width:0.5;" width="81.1328" x="1219.9293" y="105"/><text fill="#17232D" font-family="Arial" font-size="20" lengthAdjust="spacing" textLength="61.1328" x="1229.9293" y="133.7598">Revise</text></g><!--entity reject--><g class="entity" data-qualified-name="reject" data-source-line="26" id="ent0010"><rect fill="#F7F4ED" height="42.998" rx="9" ry="9" style="stroke:#49677C;stroke-width:0.5;" width="76.6895" x="1222.1493" y="196"/><text fill="#17232D" font-family="Arial" font-size="20" lengthAdjust="spacing" textLength="56.6895" x="1232.1493" y="224.7598">Reject</text></g><!--entity defer--><g class="entity" data-qualified-name="defer" data-source-line="27" id="ent0011"><rect fill="#F7F4ED" height="42.998" rx="9" ry="9" style="stroke:#49677C;stroke-width:0.5;" width="68.9063" x="1226.0393" y="287"/><text fill="#17232D" font-family="Arial" font-size="20" lengthAdjust="spacing" textLength="48.9063" x="1236.0393" y="315.7598">Defer</text></g><!--entity accepted--><g class="entity" data-qualified-name="accepted" data-source-line="28" id="ent0012"><ellipse cx="1410.0593" cy="14.5" fill="#4A6FF3" rx="8" ry="8" style="stroke:#181818;stroke-width:0.5;"/><text fill="#17232D" font-family="Arial" font-size="20" lengthAdjust="spacing" textLength="83.3887" x="1368.365" y="50.2598">Accepted</text></g><!--entity rework--><g class="entity" data-qualified-name="rework" data-source-line="29" id="ent0013"><ellipse cx="1410.0593" cy="119.5" fill="#4A6FF3" rx="8" ry="8" style="stroke:#181818;stroke-width:0.5;"/><text fill="#17232D" font-family="Arial" font-size="20" lengthAdjust="spacing" textLength="67.793" x="1376.1628" y="155.2598">Rework</text></g><!--entity closed--><g class="entity" data-qualified-name="closed" data-source-line="30" id="ent0014"><ellipse cx="1410.0593" cy="224.5" fill="#4A6FF3" rx="8" ry="8" style="stroke:#181818;stroke-width:0.5;"/><text fill="#17232D" font-family="Arial" font-size="20" lengthAdjust="spacing" textLength="62.2559" x="1378.9314" y="260.2598">Closed</text></g><!--entity parked--><g class="entity" data-qualified-name="parked" data-source-line="31" id="ent0015"><ellipse cx="1410.0593" cy="329.5" fill="#4A6FF3" rx="8" ry="8" style="stroke:#181818;stroke-width:0.5;"/><text fill="#17232D" font-family="Arial" font-size="20" lengthAdjust="spacing" textLength="63.3691" x="1378.3747" y="365.2598">Parked</text></g><!--link start to proposed--><g class="link" data-entity-1="ent0001" data-entity-2="ent0002" data-link-type="dependency" data-source-line="33" id="lnk16"><path d="M49.7693,178.5 C66.6793,178.5 103.2293,178.5 138.7293,178.5" fill="none" id="start-to-proposed" style="stroke:#0D32B2;stroke-width:1;"/><polygon fill="#0D32B2" points="143.7293,178.5,134.7293,174.5,138.7293,178.5,134.7293,182.5,143.7293,178.5" style="stroke:#0D32B2;stroke-width:1;stroke-linejoin:miter;stroke-miterlimit:10;"/></g><!--link proposed to interpret--><g class="link" data-entity-1="ent0002" data-entity-2="ent0003" data-link-type="dependency" data-source-line="34" id="lnk17"><path d="M263.2993,178.5 C282.2493,178.5 298.3693,178.5 317.7993,178.5" fill="none" id="proposed-to-interpret" style="stroke:#0D32B2;stroke-width:1;"/><polygon fill="#0D32B2" points="322.7993,178.5,313.7993,174.5,317.7993,178.5,313.7993,182.5,322.7993,178.5" style="stroke:#0D32B2;stroke-width:1;stroke-linejoin:miter;stroke-miterlimit:10;"/></g><!--link interpret to assurance--><g class="link" data-entity-1="ent0003" data-entity-2="ent0004" data-link-type="dependency" data-source-line="35" id="lnk18"><path d="M456.7193,178.5 C475.9293,178.5 491.8993,178.5 511.0393,178.5" fill="none" id="interpret-to-assurance" style="stroke:#0D32B2;stroke-width:1;"/><polygon fill="#0D32B2" points="516.0393,178.5,507.0393,174.5,511.0393,178.5,507.0393,182.5,516.0393,178.5" style="stroke:#0D32B2;stroke-width:1;stroke-linejoin:miter;stroke-miterlimit:10;"/></g><!--link assurance to findings--><g class="link" data-entity-1="ent0004" data-entity-2="ent0005" data-link-type="dependency" data-source-line="36" id="lnk19"><path d="M647.7693,178.5 C667.4793,178.5 683.7693,178.5 702.0993,178.5" fill="none" id="assurance-to-findings" style="stroke:#0D32B2;stroke-width:1;"/><polygon fill="#0D32B2" points="707.0993,178.5,698.0993,174.5,702.0993,178.5,698.0993,182.5,707.0993,178.5" style="stroke:#0D32B2;stroke-width:1;stroke-linejoin:miter;stroke-miterlimit:10;"/></g><!--link findings to human_review--><g class="link" data-entity-1="ent0005" data-entity-2="ent0006" data-link-type="dependency" data-source-line="37" id="lnk20"><path d="M803.2693,178.5 C821.7893,178.5 838.2593,178.5 857.7993,178.5" fill="none" id="findings-to-human_review" style="stroke:#0D32B2;stroke-width:1;"/><polygon fill="#0D32B2" points="862.7993,178.5,853.7993,174.5,857.7993,178.5,853.7993,182.5,862.7993,178.5" style="stroke:#0D32B2;stroke-width:1;stroke-linejoin:miter;stroke-miterlimit:10;"/></g><!--link human_review to disposition--><g class="link" data-entity-1="ent0006" data-entity-2="ent0007" data-link-type="dependency" data-source-line="38" id="lnk21"><path d="M982.3593,178.5 C1001.5093,178.5 1017.7393,178.5 1036.8393,178.5" fill="none" id="human_review-to-disposition" style="stroke:#0D32B2;stroke-width:1;"/><polygon fill="#0D32B2" points="1041.8393,178.5,1032.8393,174.5,1036.8393,178.5,1032.8393,182.5,1041.8393,178.5" style="stroke:#0D32B2;stroke-width:1;stroke-linejoin:miter;stroke-miterlimit:10;"/></g><!--link disposition to merge--><g class="link" data-entity-1="ent0007" data-entity-2="ent0008" data-link-type="dependency" data-source-line="39" id="lnk22"><path d="M1124.9193,156.69 C1154.7693,128.25 1203.0788,82.2384 1232.9488,53.7884" fill="none" id="disposition-to-merge" style="stroke:#0D32B2;stroke-width:1;"/><polygon fill="#0D32B2" points="1236.5693,50.34,1227.2936,53.6507,1232.9488,53.7884,1232.8111,59.4436,1236.5693,50.34" style="stroke:#0D32B2;stroke-width:1;stroke-linejoin:miter;stroke-miterlimit:10;"/></g><!--link disposition to revise--><g class="link" data-entity-1="ent0007" data-entity-2="ent0009" data-link-type="dependency" data-source-line="40" id="lnk23"><path d="M1160.2093,159.28 C1180.0093,152.75 1196.9314,147.1577 1214.9514,141.2077" fill="none" id="disposition-to-revise" style="stroke:#0D32B2;stroke-width:1;"/><polygon fill="#0D32B2" points="1219.6993,139.64,1209.899,138.6635,1214.9514,141.2077,1212.4073,146.2602,1219.6993,139.64" style="stroke:#0D32B2;stroke-width:1;stroke-linejoin:miter;stroke-miterlimit:10;"/></g><!--link disposition to reject--><g class="link" data-entity-1="ent0007" data-entity-2="ent0010" data-link-type="dependency" data-source-line="41" id="lnk24"><path d="M1160.2093,192.91 C1180.8893,198.03 1198.7457,202.4591 1217.2157,207.0291" fill="none" id="disposition-to-reject" style="stroke:#0D32B2;stroke-width:1;"/><polygon fill="#0D32B2" points="1222.0693,208.23,1214.2935,202.1854,1217.2157,207.0291,1212.372,209.9512,1222.0693,208.23" style="stroke:#0D32B2;stroke-width:1;stroke-linejoin:miter;stroke-miterlimit:10;"/></g><!--link disposition to defer--><g class="link" data-entity-1="ent0007" data-entity-2="ent0011" data-link-type="dependency" data-source-line="42" id="lnk25"><path d="M1128.3793,200.26 C1157.4393,224.26 1200.0939,259.4563 1229.1939,283.4863" fill="none" id="disposition-to-defer" style="stroke:#0D32B2;stroke-width:1;"/><polygon fill="#0D32B2" points="1233.0493,286.67,1228.6565,277.855,1229.1939,283.4863,1223.5626,284.0237,1233.0493,286.67" style="stroke:#0D32B2;stroke-width:1;stroke-linejoin:miter;stroke-miterlimit:10;"/></g><!--link merge to accepted--><g class="link" data-entity-1="ent0008" data-entity-2="ent0012" data-link-type="dependency" data-source-line="43" id="lnk26"><path d="M1299.1093,24.93 C1333.7793,21.64 1377.6217,17.483 1396.3517,15.703" fill="none" id="merge-to-accepted" style="stroke:#0D32B2;stroke-width:1;"/><polygon fill="#0D32B2" points="1401.3293,15.23,1391.9912,12.0994,1396.3517,15.703,1392.7481,20.0635,1401.3293,15.23" style="stroke:#0D32B2;stroke-width:1;stroke-linejoin:miter;stroke-miterlimit:10;"/></g><!--link revise to rework--><g class="link" data-entity-1="ent0009" data-entity-2="ent0013" data-link-type="dependency" data-source-line="44" id="lnk27"><path d="M1301.4293,124.61 C1335.9093,122.97 1377.9949,120.977 1396.3249,120.107" fill="none" id="revise-to-rework" style="stroke:#0D32B2;stroke-width:1;"/><polygon fill="#0D32B2" points="1401.3193,119.87,1392.1398,116.3012,1396.3249,120.107,1392.5191,124.2922,1401.3193,119.87" style="stroke:#0D32B2;stroke-width:1;stroke-linejoin:miter;stroke-miterlimit:10;"/></g><!--link reject to closed--><g class="link" data-entity-1="ent0010" data-entity-2="ent0014" data-link-type="dependency" data-source-line="45" id="lnk28"><path d="M1299.1093,219.28 C1333.7793,220.93 1377.6049,223.0027 1396.3349,223.8927" fill="none" id="reject-to-closed" style="stroke:#0D32B2;stroke-width:1;"/><polygon fill="#0D32B2" points="1401.3293,224.13,1392.5293,219.7073,1396.3349,223.8927,1392.1496,227.6983,1401.3293,224.13" style="stroke:#0D32B2;stroke-width:1;stroke-linejoin:miter;stroke-miterlimit:10;"/></g><!--link defer to parked--><g class="link" data-entity-1="ent0011" data-entity-2="ent0015" data-link-type="dependency" data-source-line="46" id="lnk29"><path d="M1295.3493,313.32 C1330.0693,318.26 1376.7092,324.8954 1396.2392,327.6754" fill="none" id="defer-to-parked" style="stroke:#0D32B2;stroke-width:1;"/><polygon fill="#0D32B2" points="1401.1893,328.38,1392.8428,323.1516,1396.2392,327.6754,1391.7154,331.0718,1401.1893,328.38" style="stroke:#0D32B2;stroke-width:1;stroke-linejoin:miter;stroke-miterlimit:10;"/></g><?plantuml-src RLBRYjim47tNLuZaUM5ZB_7sfU34DhtGigIlWKMLnuaQHp8ZfO6M_djrYwrStcREEIEDpf4-23amP4Vwa_733jL9jclLAwG6cTIM0cc87bLwprfr5d97EzPhI9WMEdRgJQEa-SwEG4iKh7_C_n1_W6RFZybm-tnHP7bM9H84RfZSzK3_4afNDzlEcw9vgIl7A6m18_hoOLaKQulUdqpf9eoZ1AIBL_8lkQn4LEUeVwxoR9NTakCx5WNfeJFKA8fYjpUq5MvLeIGXN22t2y_MUxivp2ZJL1k6nYsnN2qpCZrgzePgK1hQhVmgrRc7DWuC4K-rdwK1710CPT8ER80hoKKV1iI5J2TAv7jXR7z2rczbgRKj90yJxDBHURMkLtMHJZP2jZPlxPLTRApVUPrNTIhyT3eokPLVJdRpe_qrVc3lm7U4tmBEgRWIshvAE9kyhfrwEgzVwwh9IAh_1XZzEBhgqQ8RUuaE6lJbDVdBDf5qvTKoq066DLmrnbPo3eE1DfWK6_kfocNJvADg0sU5XtYqA-yKwzu5w1NSbtUADuQ7g1XyEIf8-31FJn-ddt0fF3h5FLOU7qCbKxmElqH8nYmTUfLJsdWsIOUaIJdEvt67nWJkOU_zBHni3ydwtQFN91mJHvst99pWaU0bySF186_TVm00?></g></svg>