<?xml version="1.0" encoding="UTF-8"?>
<svg xmlns="http://www.w3.org/2000/svg" width="1280" height="720" viewBox="0 0 1280 720">
  <defs>
    <linearGradient id="field" x1="0" y1="0" x2="1" y2="1">
      <stop offset="0" stop-color="#091218"/>
      <stop offset="0.58" stop-color="#0d1820"/>
      <stop offset="1" stop-color="#132833"/>
    </linearGradient>
    <radialGradient id="warm" cx="50%" cy="50%" r="50%">
      <stop offset="0" stop-color="#b78360" stop-opacity=".34"/>
      <stop offset="1" stop-color="#b78360" stop-opacity="0"/>
    </radialGradient>
    <radialGradient id="cool" cx="50%" cy="50%" r="50%">
      <stop offset="0" stop-color="#497b91" stop-opacity=".31"/>
      <stop offset="1" stop-color="#497b91" stop-opacity="0"/>
    </radialGradient>
    <linearGradient id="paper-surface" x1="0" y1="0" x2="0" y2="1">
      <stop offset="0" stop-color="#fffdf8"/>
      <stop offset="1" stop-color="#ebe7dd"/>
    </linearGradient>
    <filter id="shadow" x="-30%" y="-30%" width="160%" height="160%">
      <feDropShadow dx="0" dy="16" stdDeviation="18" flood-color="#000" flood-opacity=".38"/>
    </filter>
    <filter id="soft-shadow" x="-30%" y="-30%" width="160%" height="160%">
      <feDropShadow dx="0" dy="8" stdDeviation="10" flood-color="#000" flood-opacity=".28"/>
    </filter>
    <pattern id="grid" width="42" height="42" patternUnits="userSpaceOnUse">
      <path d="M 42 0 L 0 0 0 42" fill="none" stroke="#6f858e" stroke-opacity=".11" stroke-width="1"/>
    </pattern>
    <marker id="arrow" viewBox="0 0 10 10" refX="8" refY="5" markerWidth="6" markerHeight="6" orient="auto-start-reverse">
      <path d="M 0 0 L 10 5 L 0 10 z" fill="#55798b"/>
    </marker>
  </defs>
  <rect width="1280" height="720" fill="url(#field)"/>
  <rect width="1280" height="720" fill="url(#grid)"/>
  <ellipse cx="1060" cy="260" rx="430" ry="360" fill="url(#warm)"/>
  <ellipse cx="250" cy="610" rx="530" ry="300" fill="url(#cool)"/>
  
  <g transform="translate(52 114)" filter="url(#shadow)">
    <rect width="820" height="515" rx="28" fill="url(#paper-surface)"/>
    <rect x="18" y="18" width="784" height="479" rx="20" fill="none" stroke="#cbc8bf"/>
    <text x="55" y="66" font-family="Inter,Arial,sans-serif" font-size="14" font-weight="700" fill="#a65d3f" letter-spacing="2.2">ARCHITECTURAL WORKING SURFACE</text>
    <g transform="translate(60 300) scale(0.8571428571428571)">
    <line x1="118" y1="75" x2="148" y2="75" stroke="#55798b" stroke-width="3" marker-end="url(#arrow)"/><line x1="288" y1="75" x2="318" y2="75" stroke="#55798b" stroke-width="3" marker-end="url(#arrow)"/><line x1="475" y1="75" x2="508" y2="75" stroke="#55798b" stroke-width="3" marker-end="url(#arrow)"/>
    <g>
      <rect x="0" y="40" width="118" height="70" rx="14" fill="#fffdfa" stroke="#9aabb1" stroke-width="2"/>
      <text x="59" y="80" text-anchor="middle" font-family="Inter,Arial,sans-serif" font-size="16" font-weight="700" letter-spacing=".8" fill="#172028">PROBLEM</text>
    </g><g>
      <rect x="160" y="40" width="128" height="70" rx="14" fill="#fffdfa" stroke="#9aabb1" stroke-width="2"/>
      <text x="224" y="80" text-anchor="middle" font-family="Inter,Arial,sans-serif" font-size="16" font-weight="700" letter-spacing=".8" fill="#172028">PRINCIPLES</text>
    </g><g>
      <rect x="330" y="40" width="145" height="70" rx="14" fill="#fffdfa" stroke="#9aabb1" stroke-width="2"/>
      <text x="402.5" y="80" text-anchor="middle" font-family="Inter,Arial,sans-serif" font-size="16" font-weight="700" letter-spacing=".8" fill="#172028">CAPABILITIES</text>
    </g><g>
      <rect x="520" y="40" width="180" height="70" rx="14" fill="#dbe8eb" stroke="#a65d3f" stroke-width="2"/>
      <text x="610" y="80" text-anchor="middle" font-family="Inter,Arial,sans-serif" font-size="16" font-weight="700" letter-spacing=".8" fill="#172028">ARCHITECTURE</text>
    </g>
  </g>
  </g>
  <g transform="translate(795 30)" filter="url(#soft-shadow)">
    <svg x="0" y="0" width="425" height="452" viewBox="377 48 917 976" preserveAspectRatio="xMidYMid meet" overflow="visible">
    <image href="../../../../../assets/companion/v1/companion-neutral.png" x="0" y="0" width="1536" height="1024"/>
  </svg>
  </g>
  <g transform="translate(735 350)">
    <rect x="0" y="0" width="495" height="294" rx="24" fill="#101d24" fill-opacity=".93" stroke="#36515e" stroke-width="2"/>
    <g transform="translate(30 48)">
    <rect x="0" y="-21" width="112" height="6" rx="3" fill="#a65d3f"/>
    <text x="0" y="55" font-family="Inter,Arial,sans-serif" font-size="55" font-weight="800" letter-spacing="-2.2" fill="#f4f0e8">BUILDING</text>
<text x="0" y="111.1" font-family="Inter,Arial,sans-serif" font-size="55" font-weight="800" letter-spacing="-2.2" fill="#a65d3f">AI-NATIVE</text>
<text x="0" y="167.2" font-family="Inter,Arial,sans-serif" font-size="55" font-weight="800" letter-spacing="-2.2" fill="#f4f0e8" textLength="431.2" lengthAdjust="spacingAndGlyphs">ARCHITECTURE</text>
  </g>
  </g>
  <g transform="translate(76 54)">
    <text x="0" y="0" font-family="Inter,Arial,sans-serif" font-size="17" font-weight="700" fill="#f4f0e8" letter-spacing="5">ARTICULATE</text>
    <text x="1" y="22" font-family="Inter,Arial,sans-serif" font-size="9" font-weight="600" fill="#55798b" letter-spacing="2.1">AI-NATIVE ARCHITECTURE JOURNAL</text>
  </g>
  <g transform="translate(1120 49)">
    <rect width="84" height="36" rx="18" fill="#192a33" stroke="#47616d"/>
    <text x="42" y="23" text-anchor="middle" font-family="Inter,Arial,sans-serif" font-size="13" font-weight="700" fill="#f4f0e8" letter-spacing="1.2">0000</text>
  </g>
</svg>