<?xml version="1.0" encoding="UTF-8"?>
<svg xmlns="http://www.w3.org/2000/svg" width="1280" height="720" viewBox="0 0 1280 720">
  <defs>
    <linearGradient id="field" x1="0" y1="0" x2="1" y2="1">
      <stop offset="0" stop-color="#091218"/>
      <stop offset="0.58" stop-color="#0d1820"/>
      <stop offset="1" stop-color="#132833"/>
    </linearGradient>
    <radialGradient id="warm" cx="50%" cy="50%" r="50%">
      <stop offset="0" stop-color="#b78360" stop-opacity=".34"/>
      <stop offset="1" stop-color="#b78360" stop-opacity="0"/>
    </radialGradient>
    <radialGradient id="cool" cx="50%" cy="50%" r="50%">
      <stop offset="0" stop-color="#497b91" stop-opacity=".31"/>
      <stop offset="1" stop-color="#497b91" stop-opacity="0"/>
    </radialGradient>
    <linearGradient id="paper-surface" x1="0" y1="0" x2="0" y2="1">
      <stop offset="0" stop-color="#fffdf8"/>
      <stop offset="1" stop-color="#ebe7dd"/>
    </linearGradient>
    <filter id="shadow" x="-30%" y="-30%" width="160%" height="160%">
      <feDropShadow dx="0" dy="16" stdDeviation="18" flood-color="#000" flood-opacity=".38"/>
    </filter>
    <filter id="soft-shadow" x="-30%" y="-30%" width="160%" height="160%">
      <feDropShadow dx="0" dy="8" stdDeviation="10" flood-color="#000" flood-opacity=".28"/>
    </filter>
    <pattern id="grid" width="42" height="42" patternUnits="userSpaceOnUse">
      <path d="M 42 0 L 0 0 0 42" fill="none" stroke="#6f858e" stroke-opacity=".11" stroke-width="1"/>
    </pattern>
  </defs>
  <rect width="1280" height="720" fill="url(#field)"/>
  <rect width="1280" height="720" fill="url(#grid)"/>
  <ellipse cx="1080" cy="265" rx="430" ry="360" fill="url(#warm)"/>
  <ellipse cx="240" cy="640" rx="540" ry="290" fill="url(#cool)"/>
  
  <g transform="translate(28 100)" filter="url(#shadow)">
    <ellipse cx="252" cy="570" rx="215" ry="28" fill="#020608" opacity=".42"/>
    <svg x="0" y="0" width="510" height="545" viewBox="377 48 917 976" preserveAspectRatio="xMidYMid meet" overflow="visible">
    <image href="../../../../../assets/companion/v1/companion-neutral.png" x="0" y="0" width="1536" height="1024"/>
  </svg>
  </g>
  <g transform="translate(470 102)" filter="url(#soft-shadow)">
    <rect width="742" height="522" rx="28" fill="url(#paper-surface)"/>
    <rect x="20" y="20" width="702" height="482" rx="20" fill="none" stroke="#cecac0"/>
    <text x="50" y="60" font-family="Inter,Arial,sans-serif" font-size="14" font-weight="700" fill="#a65d3f" letter-spacing="2.2">ARTICULATE JOURNAL · EP 0001</text>
    <g transform="translate(50 84)">
    <rect x="0" y="-21" width="112" height="6" rx="3" fill="#a65d3f"/>
    <text x="0" y="56" font-family="Inter,Arial,sans-serif" font-size="56" font-weight="800" letter-spacing="-2.2" fill="#172028">WHERE DOES</text>
<text x="0" y="113.12" font-family="Inter,Arial,sans-serif" font-size="56" font-weight="800" letter-spacing="-2.2" fill="#a65d3f">ARCHITECTURE</text>
<text x="0" y="170.24" font-family="Inter,Arial,sans-serif" font-size="56" font-weight="800" letter-spacing="-2.2" fill="#172028">LIVE?</text>
  </g>
    <g transform="translate(48 332)">
      <g transform="translate(0 10)">
    <rect width="110" height="58" rx="12" fill="#fffdfa" stroke="#9aabb1" stroke-width="2"/>
    <text x="55" y="36" text-anchor="middle" font-family="Inter,Arial,sans-serif" font-size="14" font-weight="700" fill="#172028" letter-spacing=".8">CODE</text>
  </g>
      <g transform="translate(0 102)">
    <rect width="110" height="58" rx="12" fill="#fffdfa" stroke="#9aabb1" stroke-width="2"/>
    <text x="55" y="36" text-anchor="middle" font-family="Inter,Arial,sans-serif" font-size="14" font-weight="700" fill="#172028" letter-spacing=".8">DOCS</text>
  </g>
      <g transform="translate(510 10)">
    <rect width="126" height="58" rx="12" fill="#fffdfa" stroke="#9aabb1" stroke-width="2"/>
    <text x="63" y="36" text-anchor="middle" font-family="Inter,Arial,sans-serif" font-size="14" font-weight="700" fill="#172028" letter-spacing=".8">SYSTEMS</text>
  </g>
      <g transform="translate(510 102)">
    <rect width="126" height="58" rx="12" fill="#fffdfa" stroke="#9aabb1" stroke-width="2"/>
    <text x="63" y="36" text-anchor="middle" font-family="Inter,Arial,sans-serif" font-size="14" font-weight="700" fill="#172028" letter-spacing=".8">PEOPLE</text>
  </g>
      <path d="M126 48 C190 48 196 64 230 70 M126 140 C186 140 198 115 230 104 M494 48 C445 48 426 62 394 70 M494 140 C445 140 426 116 394 104" fill="none" stroke="#55798b" stroke-width="3" stroke-dasharray="7 9" opacity=".65"/>
      <path d="M245 25 H378 Q394 25 394 41 V136 Q394 152 378 152 H245 Q229 152 229 136 V41 Q229 25 245 25 Z" fill="#dbe8eb" fill-opacity=".34" stroke="#a65d3f" stroke-width="3" stroke-dasharray="12 9"/>
      <text x="311" y="79" text-anchor="middle" font-family="Inter,Arial,sans-serif" font-size="14" font-weight="700" fill="#a65d3f" letter-spacing="1.8">THE MISSING</text>
      <text x="311" y="108" text-anchor="middle" font-family="Inter,Arial,sans-serif" font-size="19" font-weight="800" fill="#172028" letter-spacing=".7">ARCHITECTURE</text>
    </g>
  </g>
  <g transform="translate(76 54)">
    <text x="0" y="0" font-family="Inter,Arial,sans-serif" font-size="17" font-weight="700" fill="#f4f0e8" letter-spacing="5">ARTICULATE</text>
    <text x="1" y="22" font-family="Inter,Arial,sans-serif" font-size="9" font-weight="600" fill="#55798b" letter-spacing="2.1">AI-NATIVE ARCHITECTURE JOURNAL</text>
  </g>
  <g transform="translate(1120 49)">
    <rect width="84" height="36" rx="18" fill="#192a33" stroke="#47616d"/>
    <text x="42" y="23" text-anchor="middle" font-family="Inter,Arial,sans-serif" font-size="13" font-weight="700" fill="#f4f0e8" letter-spacing="1.2">0001</text>
  </g>
</svg>