<?xml version="1.0" encoding="UTF-8"?>
<svg xmlns="http://www.w3.org/2000/svg" width="1280" height="720" viewBox="0 0 1280 720">
  <defs>
    <linearGradient id="field" x1="0" y1="0" x2="1" y2="1">
      <stop offset="0" stop-color="#091218"/>
      <stop offset="0.58" stop-color="#0d1820"/>
      <stop offset="1" stop-color="#132833"/>
    </linearGradient>
    <radialGradient id="warm" cx="50%" cy="50%" r="50%">
      <stop offset="0" stop-color="#b78360" stop-opacity=".34"/>
      <stop offset="1" stop-color="#b78360" stop-opacity="0"/>
    </radialGradient>
    <radialGradient id="cool" cx="50%" cy="50%" r="50%">
      <stop offset="0" stop-color="#497b91" stop-opacity=".31"/>
      <stop offset="1" stop-color="#497b91" stop-opacity="0"/>
    </radialGradient>
    <linearGradient id="paper-surface" x1="0" y1="0" x2="0" y2="1">
      <stop offset="0" stop-color="#fffdf8"/>
      <stop offset="1" stop-color="#ebe7dd"/>
    </linearGradient>
    <filter id="shadow" x="-30%" y="-30%" width="160%" height="160%">
      <feDropShadow dx="0" dy="16" stdDeviation="18" flood-color="#000" flood-opacity=".38"/>
    </filter>
    <filter id="soft-shadow" x="-30%" y="-30%" width="160%" height="160%">
      <feDropShadow dx="0" dy="8" stdDeviation="10" flood-color="#000" flood-opacity=".28"/>
    </filter>
    <pattern id="grid" width="42" height="42" patternUnits="userSpaceOnUse">
      <path d="M 42 0 L 0 0 0 42" fill="none" stroke="#6f858e" stroke-opacity=".11" stroke-width="1"/>
    </pattern>
  </defs>
  <rect width="1280" height="720" fill="url(#field)"/>
  <rect width="1280" height="720" fill="url(#grid)"/>
  <ellipse cx="1080" cy="265" rx="430" ry="360" fill="url(#warm)"/>
  <ellipse cx="240" cy="640" rx="540" ry="290" fill="url(#cool)"/>
  
  <g><g transform="translate(76 146)">
    <rect x="0" y="-21" width="112" height="6" rx="3" fill="#a65d3f"/>
    <text x="0" y="80" font-family="Inter,Arial,sans-serif" font-size="80" font-weight="800" letter-spacing="-2.2" fill="#f4f0e8">WHY</text>
<text x="0" y="161.6" font-family="Inter,Arial,sans-serif" font-size="80" font-weight="800" letter-spacing="-2.2" fill="#a65d3f">ARTICULATE?</text>
  </g></g>
  <g transform="translate(72 382)">
    <text x="0" y="0" font-family="Inter,Arial,sans-serif" font-size="13" font-weight="700" fill="#8fa2aa" letter-spacing="2">FRAGMENTED SIGNALS</text>
    <g transform="translate(8 40) rotate(-4 42 24)">
    <rect width="84" height="48" rx="10" fill="#172a34" stroke="#6f858e" stroke-width="2"/>
    <text x="42" y="30" text-anchor="middle" font-family="Inter,Arial,sans-serif" font-size="12" font-weight="700" fill="#f4f0e8" letter-spacing=".7">CODE</text>
  </g>
    <g transform="translate(112 108) rotate(3 42 24)">
    <rect width="84" height="48" rx="10" fill="#172a34" stroke="#6f858e" stroke-width="2"/>
    <text x="42" y="30" text-anchor="middle" font-family="Inter,Arial,sans-serif" font-size="12" font-weight="700" fill="#f4f0e8" letter-spacing=".7">DOCS</text>
  </g>
    <g transform="translate(212 28) rotate(4 42 24)">
    <rect width="84" height="48" rx="10" fill="#172a34" stroke="#6f858e" stroke-width="2"/>
    <text x="42" y="30" text-anchor="middle" font-family="Inter,Arial,sans-serif" font-size="12" font-weight="700" fill="#f4f0e8" letter-spacing=".7">ADR</text>
  </g>
    <g transform="translate(238 132) rotate(-3 42 24)">
    <rect width="84" height="48" rx="10" fill="#172a34" stroke="#6f858e" stroke-width="2"/>
    <text x="42" y="30" text-anchor="middle" font-family="Inter,Arial,sans-serif" font-size="12" font-weight="700" fill="#f4f0e8" letter-spacing=".7">TRACE</text>
  </g>
    <path d="M82 70 L106 102 M182 117 L224 73 M276 79 L278 124" stroke="#6f858e" stroke-width="2" stroke-dasharray="5 8" opacity=".4"/>
  </g>
  <g transform="translate(500 114)" filter="url(#shadow)">
    <ellipse cx="246" cy="545" rx="198" ry="25" fill="#020608" opacity=".4"/>
    <svg x="0" y="0" width="492" height="525" viewBox="377 48 917 976" preserveAspectRatio="xMidYMid meet" overflow="visible">
    <image href="../../../../../assets/companion/v1/companion-neutral.png" x="0" y="0" width="1536" height="1024"/>
  </svg>
  </g>
  <g transform="translate(880 338)">
    <text x="0" y="0" font-family="Inter,Arial,sans-serif" font-size="13" font-weight="700" fill="#8fa2aa" letter-spacing="2">ARCHITECTURAL INTELLIGENCE</text>
    <g transform="translate(0 28)" filter="url(#soft-shadow)">
      <rect width="360" height="224" rx="24" fill="#f4f0e8"/>
      <rect x="16" y="16" width="328" height="192" rx="17" fill="none" stroke="#cecac0"/>
      <path d="M75 70 L180 112 L282 65 M180 112 L282 160 M180 112 L78 164" fill="none" stroke="#55798b" stroke-width="4"/>
      <g>
    <circle cx="180" cy="112" r="42" fill="#dbe8eb" stroke="#a65d3f" stroke-width="3"/>
    <text x="180" y="116" text-anchor="middle" font-family="Inter,Arial,sans-serif" font-size="10" font-weight="800" fill="#172028" letter-spacing=".4">MODEL</text>
  </g>
      <g>
    <circle cx="75" cy="70" r="31" fill="#fffdfa" stroke="#9aabb1" stroke-width="3"/>
    <text x="75" y="74" text-anchor="middle" font-family="Inter,Arial,sans-serif" font-size="10" font-weight="800" fill="#172028" letter-spacing=".4">CODE</text>
  </g>
      <g>
    <circle cx="282" cy="65" r="31" fill="#fffdfa" stroke="#9aabb1" stroke-width="3"/>
    <text x="282" y="69" text-anchor="middle" font-family="Inter,Arial,sans-serif" font-size="10" font-weight="800" fill="#172028" letter-spacing=".4">ADRS</text>
  </g>
      <g>
    <circle cx="78" cy="164" r="31" fill="#fffdfa" stroke="#9aabb1" stroke-width="3"/>
    <text x="78" y="168" text-anchor="middle" font-family="Inter,Arial,sans-serif" font-size="8" font-weight="800" fill="#172028" letter-spacing=".4">EVIDENCE</text>
  </g>
      <g>
    <circle cx="282" cy="160" r="31" fill="#fffdfa" stroke="#9aabb1" stroke-width="3"/>
    <text x="282" y="164" text-anchor="middle" font-family="Inter,Arial,sans-serif" font-size="8" font-weight="800" fill="#172028" letter-spacing=".4">SYSTEMS</text>
  </g>
    </g>
  </g>
  <path d="M350 503 C420 503 450 503 526 503" fill="none" stroke="#a65d3f" stroke-width="4" stroke-linecap="round" opacity=".8"/>
  <path d="M888 503 C892 503 896 503 900 503" fill="none" stroke="#a65d3f" stroke-width="4" stroke-linecap="round" opacity=".8"/>
  <g transform="translate(76 54)">
    <text x="0" y="0" font-family="Inter,Arial,sans-serif" font-size="17" font-weight="700" fill="#f4f0e8" letter-spacing="5">ARTICULATE</text>
    <text x="1" y="22" font-family="Inter,Arial,sans-serif" font-size="9" font-weight="600" fill="#55798b" letter-spacing="2.1">AI-NATIVE ARCHITECTURE JOURNAL</text>
  </g>
  <g transform="translate(1120 49)">
    <rect width="84" height="36" rx="18" fill="#192a33" stroke="#47616d"/>
    <text x="42" y="23" text-anchor="middle" font-family="Inter,Arial,sans-serif" font-size="13" font-weight="700" fill="#f4f0e8" letter-spacing="1.2">0001</text>
  </g>
</svg>