<?xml version="1.0" encoding="UTF-8"?>
<svg xmlns="http://www.w3.org/2000/svg" width="1280" height="720" viewBox="0 0 1280 720">
  <defs>
    <linearGradient id="field" x1="0" y1="0" x2="1" y2="1">
      <stop offset="0" stop-color="#091218"/>
      <stop offset="0.58" stop-color="#0d1820"/>
      <stop offset="1" stop-color="#132833"/>
    </linearGradient>
    <radialGradient id="warm" cx="50%" cy="50%" r="50%">
      <stop offset="0" stop-color="#b78360" stop-opacity=".34"/>
      <stop offset="1" stop-color="#b78360" stop-opacity="0"/>
    </radialGradient>
    <radialGradient id="cool" cx="50%" cy="50%" r="50%">
      <stop offset="0" stop-color="#497b91" stop-opacity=".31"/>
      <stop offset="1" stop-color="#497b91" stop-opacity="0"/>
    </radialGradient>
    <linearGradient id="paper-surface" x1="0" y1="0" x2="0" y2="1">
      <stop offset="0" stop-color="#fffdf8"/>
      <stop offset="1" stop-color="#ebe7dd"/>
    </linearGradient>
    <filter id="shadow" x="-30%" y="-30%" width="160%" height="160%">
      <feDropShadow dx="0" dy="16" stdDeviation="18" flood-color="#000" flood-opacity=".38"/>
    </filter>
    <filter id="soft-shadow" x="-30%" y="-30%" width="160%" height="160%">
      <feDropShadow dx="0" dy="8" stdDeviation="10" flood-color="#000" flood-opacity=".28"/>
    </filter>
    <pattern id="grid" width="42" height="42" patternUnits="userSpaceOnUse">
      <path d="M 42 0 L 0 0 0 42" fill="none" stroke="#6f858e" stroke-opacity=".11" stroke-width="1"/>
    </pattern>
  </defs>
  <rect width="1280" height="720" fill="url(#field)"/>
  <rect width="1280" height="720" fill="url(#grid)"/>
  <ellipse cx="1080" cy="265" rx="430" ry="360" fill="url(#warm)"/>
  <ellipse cx="240" cy="640" rx="540" ry="290" fill="url(#cool)"/>
  
  <g><g transform="translate(76 150)">
    <rect x="0" y="-21" width="112" height="6" rx="3" fill="#a65d3f"/>
    <text x="0" y="72" font-family="Inter,Arial,sans-serif" font-size="72" font-weight="800" letter-spacing="-2.2" fill="#f4f0e8">ARCHITECTURE</text>
<text x="0" y="145.44" font-family="Inter,Arial,sans-serif" font-size="72" font-weight="800" letter-spacing="-2.2" fill="#a65d3f">IS FRAGMENTED</text>
  </g></g>
  <g transform="translate(76 380)">
    <g transform="translate(0 16) rotate(-3 71 36)" filter="url(#soft-shadow)">
    <rect width="142" height="72" rx="13" fill="#172a34" stroke="#6f858e" stroke-width="2"/>
    <rect x="14" y="15" width="38" height="4" rx="2" fill="#a65d3f"/>
    <text x="71" y="48" text-anchor="middle" font-family="Inter,Arial,sans-serif" font-size="16" font-weight="700" fill="#f4f0e8" letter-spacing="1.2">CODE</text>
  </g>
    <g transform="translate(178 -8) rotate(2 89 39)" filter="url(#soft-shadow)">
    <rect width="178" height="78" rx="13" fill="#172a34" stroke="#6f858e" stroke-width="2"/>
    <rect x="14" y="15" width="38" height="4" rx="2" fill="#a65d3f"/>
    <text x="89" y="48" text-anchor="middle" font-family="Inter,Arial,sans-serif" font-size="16" font-weight="700" fill="#f4f0e8" letter-spacing="1.2">DECISIONS</text>
  </g>
    <g transform="translate(394 30) rotate(-2 76 36)" filter="url(#soft-shadow)">
    <rect width="152" height="72" rx="13" fill="#172a34" stroke="#6f858e" stroke-width="2"/>
    <rect x="14" y="15" width="38" height="4" rx="2" fill="#a65d3f"/>
    <text x="76" y="48" text-anchor="middle" font-family="Inter,Arial,sans-serif" font-size="16" font-weight="700" fill="#f4f0e8" letter-spacing="1.2">SYSTEMS</text>
  </g>
    <g transform="translate(118 112) rotate(2 78 36)" filter="url(#soft-shadow)">
    <rect width="156" height="72" rx="13" fill="#172a34" stroke="#6f858e" stroke-width="2"/>
    <rect x="14" y="15" width="38" height="4" rx="2" fill="#a65d3f"/>
    <text x="78" y="48" text-anchor="middle" font-family="Inter,Arial,sans-serif" font-size="16" font-weight="700" fill="#f4f0e8" letter-spacing="1.2">PEOPLE</text>
  </g>
    <g transform="translate(326 125) rotate(-3 83 36)" filter="url(#soft-shadow)">
    <rect width="166" height="72" rx="13" fill="#172a34" stroke="#6f858e" stroke-width="2"/>
    <rect x="14" y="15" width="38" height="4" rx="2" fill="#a65d3f"/>
    <text x="83" y="48" text-anchor="middle" font-family="Inter,Arial,sans-serif" font-size="16" font-weight="700" fill="#f4f0e8" letter-spacing="1.2">EVIDENCE</text>
  </g>
    <path d="M142 52 L171 45 M356 38 L385 56 M196 72 L205 104 M440 101 L418 120 M276 145 L316 151" fill="none" stroke="#55798b" stroke-width="3" stroke-dasharray="7 10" opacity=".62"/>
    <circle cx="168" cy="46" r="5" fill="#a65d3f"/>
    <circle cx="387" cy="57" r="5" fill="#a65d3f"/>
    <circle cx="207" cy="105" r="5" fill="#a65d3f"/>
  </g>
  <g transform="translate(742 52)" filter="url(#shadow)">
    <ellipse cx="285" cy="615" rx="246" ry="30" fill="#020608" opacity=".46"/>
    <svg x="0" y="0" width="570" height="608" viewBox="377 48 917 976" preserveAspectRatio="xMidYMid meet" overflow="visible">
    <image href="../../../../../assets/companion/v1/companion-neutral.png" x="0" y="0" width="1536" height="1024"/>
  </svg>
  </g>
  <g transform="translate(76 54)">
    <text x="0" y="0" font-family="Inter,Arial,sans-serif" font-size="17" font-weight="700" fill="#f4f0e8" letter-spacing="5">ARTICULATE</text>
    <text x="1" y="22" font-family="Inter,Arial,sans-serif" font-size="9" font-weight="600" fill="#55798b" letter-spacing="2.1">AI-NATIVE ARCHITECTURE JOURNAL</text>
  </g>
  <g transform="translate(1120 49)">
    <rect width="84" height="36" rx="18" fill="#192a33" stroke="#47616d"/>
    <text x="42" y="23" text-anchor="middle" font-family="Inter,Arial,sans-serif" font-size="13" font-weight="700" fill="#f4f0e8" letter-spacing="1.2">0001</text>
  </g>
</svg>